# xmcd
#
# Track frame offsets: 
#        150
#        35971
#        56782
#        84839
#        112094
#        150149
#        181371
#        207966
#        234396
#        264890
#        286678
#
# Disc length: 4443 seconds
#
# Revision: 0
# Processed by: cddbd v1.5.1PL2 Copyright (c) Steve Scherf et al.
# Submitted via: ExactAudioCopy v0.95a5
#
DISCID=8b11590b
DTITLE=Black Dog Blues Band - House Party
DYEAR=1998
DGENRE=Blues
TTITLE0=I'm A King Bee
TTITLE1=Hoochie Coochie Man
TTITLE2=Stone Free
TTITLE3=Mercury Blues
TTITLE4=I Just Want To Make Love To You
TTITLE5=Work Song
TTITLE6=God Bless The Child
TTITLE7=Everyday I Have The Blues
TTITLE8=Consider Me Gone
TTITLE9=Jesus Just Left Chicago
TTITLE10=Chameleon
EXTD=
EXTT0=
EXTT1=
EXTT2=
EXTT3=
EXTT4=
EXTT5=
EXTT6=
EXTT7=
EXTT8=
EXTT9=
EXTT10=
PLAYORDER=
